<?xml version="1.0" encoding="UTF-8"?>
<svg id="_x2014_ÎÓÈ_1" xmlns="http://www.w3.org/2000/svg" version="1.1" viewBox="0 0 595.28 595.28">
  <!-- Generator: Adobe Illustrator 30.4.0, SVG Export Plug-In . SVG Version: 2.1.4 Build 226)  -->
  <defs>
    <style>
      .st0 {
        fill: #00508d;
        fill-rule: evenodd;
      }
    </style>
  </defs>
  <path class="st0" d="M551.2,370.26l-20.45-15.31.18,10.12-25.61-38.35,21.74,43.54h-20.01l2.3-5.37-10.17-2.84,8.94-10.3h-7.36l3.86-8.52-10,9.05-4.64-15.98-7.53-1.65-9.75-21.98,15.61,11.2.61-3.91,9.91,2.66-29.99-27.31-4.94-8.58-3.64,22.05-11.93.35-1.05,17.4-8.77-7.1v10.3l-14.03-.36,8.88,9.27,28.99,3.51,7.56,16.22,8.96.95,8.44,10.92h-94.67l-10.26-13.53-4.91-20.6-6.66,13.49-6.14-29.12-32.09-31.6-.7-21.3-9.29-25.03-8.24-4.79,1.93-16.87-4.03-.89v-13.14l-9.65-8.35,3.68-2.66-7.41-5.44,2.63-16.42-22.5,24.5-16.91,13.48,13.51-2.35,5.26-8.79,6.36,19.19,7.23,7.82-5.53.69,25.08,33.46-7.72-.97,16.49,23.61,2.63-9.59,14.38,55.39,14.19,5.2,9.46,21.01,17.57,13.59h-73.04l-35.48-35.04-2.84,30.74-4.6-9.36-2.24,4.93-4.15-16.71-2.93,2.65-2.68-23.6-3.59,3.26-6.77-19.93-3.88,2.67-10.91-35.15-3.16,4.79-42.62-36.03,46.79,70.61-16.17-14.24,21.82,59.01-9.82-6.39,9.11,17.79h-38.92l5.78-14.24-8.24,2.84,7.1-16.57-14.12,13.02-.35-28.41-8.07-14.14-5.26,3.84,1.8-15.64-4.6,6.41,8.07-34.09-12.28,2.13,17.54-22.02-4.93-13.43-1.8,9.41-10.87,8.32-5.2,19.85,5.61,6.04-5.15,30.6,7.12-16.93-3.68,21.32,8.07,11.31,5.21,38.92-20.69-28.76-1.75,14.92-3.74-13.12-17.61-13.98,6.63-39.65-18.94,36.57-8.86-7.37-5.34,7.37,2.63-24.14,26.9-28-31.87,24.23-9.35,18.56-7.68,1.59,1.13,3.56-11.75,5.09,4.17,4.69,2.67,18.03,6.84,3.73,3.97,18.14h-12.41l-18.9-11.75,7.63,11.75H17.13l-2.87-3.45L0,370.23l14.25-18.4,10.71-5.58,9.3-14.82,19.32-.84,38.53-17.88,11.29-18.18,28.71-27.18,16.76-1.75,17.81-13.62,8.31-17.12,47.63-1.19,6.17-12.47,47.97-24.92,27.5-39.46,26.36,34.91,12.09,4.93,6.21,13.12,29.97,11.08,6.87,10.6,9.54.33,29.96,21.86,13.45.04,27.18,28.53,3.65,11.91,31.65,19.38,6.17-.89,25.21,14,8.4,12.05,5.76.65,10.22,14.49,15.12,6.87,6.07,9.56h-26.91l-.04.02ZM68.97,332.51l-14.49-.4,11.68,16.12,13.74,11.17-10.45-17.4-.48-9.48h0ZM52.67,332.6l-1.54,3.21,8.77,16.67-7.23-19.88h0ZM35.08,334.11l-2.49,4.86,10.83,23.45-8.34-28.31h0ZM25.64,348.67l-4.42,6.3,8.35,5.5-3.93-11.79h0ZM131.33,370.26l-16.36-29.15,1.86,23.58-3.91-13.31-2.61,3.87-9.52-33.41,5.77,37.11-6.4,11.31h31.17ZM154.95,370.22l.75.04h6.2l-30.1-25.6,23.15,25.56h0ZM238.43,223.58l23.15,38.34-9.86-2.7,14.77,18.68-6.66,2.48,68.04,65.33-50.45-68.41,3.45-12.86-42.43-40.87h-.01ZM453.33,313.06l8.68,15.45-8.74-5.67,5.27,8.03-6.74,2.35,10.02,1.81,2.41,4.63,1.2-3.28,1.28,2.91,13.89,12.48-6.84-18.02-20.43-20.68h0ZM348.94,211.77l1.37,7.89,10.96,11.36-1.75-4.86,7.01-.64-17.59-13.75h0ZM354.69,281.1l-3.51,16.33,9.47,6.57-5.96-22.9h0ZM383.28,245.24l12.62,30.36,4.91-11.72,11.75,17.22-8.95-27.16-7.36,5.32-12.98-14.02h.01Z"/>
  <path class="st0" d="M304.26,156.84l26.36,34.91,12.09,4.93,6.21,13.12,29.97,11.08,6.87,10.6,9.54.33,29.96,21.86,13.45.04,27.18,28.53,3.65,11.91,31.65,19.38,6.17-.89,25.21,14,8.4,12.05,5.76.65,10.22,14.49,15.12,6.87,6.07,9.56h-26.91l-20.45-15.31.18,10.12-25.61-38.35,21.74,43.54h-20.01l2.3-5.37-10.17-2.84,8.94-10.3h-7.36l3.86-8.52-10,9.05-4.64-15.98-7.53-1.65-9.75-21.98,15.61,11.2.61-3.91,9.91,2.66-29.99-27.31-4.94-8.58-3.64,22.05-11.93.35-1.05,17.4-8.77-7.1v10.3l-14.03-.36,8.88,9.27,28.99,3.51,7.56,16.22,8.96.95,8.44,10.92h-94.67l-10.26-13.53-4.91-20.6-6.66,13.49-6.14-29.12-32.09-31.6-.7-21.3-9.29-25.03-8.24-4.79,1.93-16.87-4.03-.89v-13.14l-9.65-8.35,3.68-2.66-7.41-5.44,2.63-16.42-22.5,24.5-16.91,13.48,13.51-2.35,5.26-8.79,6.36,19.19,7.23,7.82-5.53.69,25.08,33.46-7.72-.97,16.49,23.61,2.63-9.59,14.38,55.39,14.19,5.2,9.46,21.01,17.57,13.59h-73.04M68.97,332.51l-14.49-.4,11.68,16.12,13.74,11.17-10.45-17.4-.48-9.48h0ZM52.67,332.6l-1.54,3.21,8.77,16.67-7.23-19.88h0ZM35.08,334.11l-2.49,4.86,10.83,23.45-8.34-28.31h0ZM25.64,348.67l-4.42,6.3,8.35,5.5-3.93-11.79h0ZM131.33,370.26l-16.36-29.15,1.86,23.58-3.91-13.31-2.61,3.87-9.52-33.41,5.77,37.11-6.4,11.31h31.17ZM154.95,370.22l.75.04h6.2l-30.1-25.6,23.15,25.56h0ZM238.43,223.58l23.15,38.34-9.86-2.7,14.77,18.68-6.66,2.48,68.04,65.33-50.45-68.41,3.45-12.86-42.43-40.87h-.01ZM453.33,313.06l8.68,15.45-8.74-5.67,5.27,8.03-6.74,2.35,10.02,1.81,2.41,4.63,1.2-3.28,1.28,2.91,13.89,12.48-6.84-18.02-20.43-20.68h0ZM348.94,211.77l1.37,7.89,10.96,11.36-1.75-4.86,7.01-.64-17.59-13.75h0ZM354.69,281.1l-3.51,16.33,9.47,6.57-5.96-22.9h0ZM383.28,245.24l12.62,30.36,4.91-11.72,11.75,17.22-8.95-27.16-7.36,5.32-12.98-14.02h.01Z"/>
</svg>