<?xml version="1.0" encoding="UTF-8"?>
<svg id="Layer_1" data-name="Layer 1" xmlns="http://www.w3.org/2000/svg" viewBox="0 0 792 612">
  <defs>
    <style>
      .cls-1 {
        fill: #eae8e2;
      }

      .cls-2, .cls-3 {
        fill: #00518d;
      }

      .cls-4 {
        font-family: Avenir-Roman, Avenir;
        font-size: 28px;
      }

      .cls-4, .cls-5 {
        fill: #231f20;
      }

      .cls-6 {
        letter-spacing: 0em;
      }

      .cls-5 {
        font-family: Avenir-Book, Avenir;
        font-size: 18px;
      }

      .cls-3 {
        fill-rule: evenodd;
      }

      .cls-7 {
        fill: #1454a5;
        font-family: Avenir-Medium, Avenir;
        font-size: 57px;
        font-weight: 500;
      }

      .cls-8 {
        letter-spacing: -.02em;
      }

      .cls-9 {
        letter-spacing: .1em;
      }

      .cls-10 {
        letter-spacing: .03em;
      }
    </style>
  </defs>
  <rect class="cls-1" width="792" height="612"/>
  <text class="cls-7" transform="translate(42 151.37) scale(.92 1)"><tspan x="0" y="0">BEYOND </tspan><tspan x="0" y="68.4">THE </tspan><tspan x="0" y="136.8">SUMMIT</tspan></text>
  <path class="cls-3" d="M729.3,309.66l-15.71-14.45.14,9.55-19.68-36.18,16.71,41.08h-15.38l1.77-5.07-7.82-2.68,6.87-9.72h-5.66l2.97-8.04-7.68,8.54-3.57-15.08-5.79-1.56-7.49-20.74,12,10.57.47-3.69,7.62,2.51-23.05-25.77-3.8-8.1-2.8,20.8-9.17.33-.81,16.42-6.74-6.7v9.72l-10.78-.34,6.82,8.75,22.28,3.31,5.81,15.3,6.89.9,6.49,10.3h-72.75l-7.88-12.77-3.77-19.44-5.12,12.73-4.72-27.47-24.66-29.81-.54-20.1-7.14-23.62-6.33-4.52,1.48-15.92-3.1-.84v-12.4l-7.42-7.88,2.83-2.51-5.69-5.13,2.02-15.49-17.29,23.12-12.99,12.72,10.38-2.22,4.04-8.29,4.89,18.11,5.56,7.38-4.25.65,19.27,31.57-5.93-.92,12.67,22.28,2.02-9.05,11.05,52.26,10.9,4.91,7.27,19.82,13.5,12.82h-56.13l-27.26-33.06-2.18,29-3.53-8.83-1.72,4.65-3.19-15.77-2.25,2.5-2.06-22.27-2.76,3.08-5.2-18.8-2.98,2.52-8.38-33.16-2.43,4.52-32.75-33.99,35.96,66.62-12.43-13.44,16.77,55.68-7.55-6.03,7,16.78h-29.91l4.44-13.44-6.33,2.68,5.46-15.63-10.85,12.28-.27-26.8-6.2-13.34-4.04,3.62,1.38-14.76-3.53,6.05,6.2-32.16-9.44,2.01,13.48-20.78-3.79-12.67-1.38,8.88-8.35,7.85-4,18.73,4.31,5.7-3.96,28.87,5.47-15.97-2.83,20.12,6.2,10.67,4,36.72-15.9-27.14-1.34,14.08-2.87-12.38-13.53-13.19,5.09-37.41-14.55,34.5-6.81-6.95-4.1,6.95,2.02-22.78,20.67-26.42-24.49,22.86-7.19,17.51-5.9,1.5.87,3.36-9.03,4.8,3.2,4.43,2.05,17.01,5.26,3.52,3.05,17.12h-9.54l-14.52-11.09,5.86,11.09h-40.9l-2.21-3.26-10.96,3.25,10.95-17.36,8.23-5.26,7.15-13.98,14.85-.79,29.61-16.87,8.68-17.15,22.06-25.64,12.88-1.65,13.69-12.85,6.39-16.15,36.6-1.12,4.74-11.77,36.86-23.51,21.13-37.23,20.26,32.94,9.29,4.65,4.77,12.38,23.03,10.45,5.28,10,7.33.31,23.02,20.63,10.34.04,20.89,26.92,2.8,11.24,24.32,18.29,4.74-.84,19.37,13.21,6.46,11.37,4.43.61,7.85,13.67,11.62,6.48,4.66,9.02h-20.68l-.03.02h0ZM358.72,274.05l-11.13-.38,8.98,15.21,10.56,10.54-8.03-16.42-.37-8.94h0ZM346.2,274.13l-1.18,3.03,6.74,15.73-5.56-18.76h0ZM332.68,275.56l-1.91,4.59,8.32,22.13-6.41-26.71h0ZM325.43,289.29l-3.4,5.94,6.42,5.19-3.02-11.12h0ZM406.64,309.66l-12.57-27.5,1.43,22.25-3-12.56-2.01,3.65-7.32-31.52,4.43,35.01-4.92,10.67h23.95ZM424.8,309.63l.58.04h4.76l-23.13-24.15,17.79,24.12h0ZM488.95,171.27l17.79,36.17-7.58-2.55,11.35,17.62-5.12,2.34,52.29,61.64-38.77-64.55,2.65-12.13-32.61-38.56h0ZM654.09,255.7l6.67,14.58-6.72-5.35,4.05,7.58-5.18,2.22,7.7,1.71,1.85,4.37.92-3.09.98,2.75,10.67,11.77-5.26-17-15.7-19.51h0ZM573.87,160.13l1.05,7.44,8.42,10.72-1.34-4.59,5.39-.6-13.52-12.97h0ZM578.29,225.54l-2.7,15.41,7.28,6.2-4.58-21.61h0ZM600.26,191.71l9.7,28.64,3.77-11.06,9.03,16.25-6.88-25.63-5.66,5.02-9.97-13.23h0Z"/>
  <rect class="cls-2" x="42" y="309.66" width="707.66" height="5.16"/>
  <text class="cls-4" transform="translate(42 362.37)"><tspan class="cls-8" x="0" y="0">V</tspan><tspan x="16.6" y="0">isua</tspan><tspan class="cls-6" x="65.35" y="0">l</tspan><tspan x="72.1" y="0">izing </tspan><tspan class="cls-6" x="138.43" y="0">t</tspan><tspan x="148.31" y="0">he</tspan><tspan x="0" y="42">Routes, Risks, and</tspan><tspan x="0" y="84">Rea</tspan><tspan class="cls-6" x="47.21" y="84">l</tspan><tspan x="53.96" y="84">i</tspan><tspan class="cls-6" x="60.67" y="84">t</tspan><tspan x="70.56" y="84" xml:space="preserve">ies of  </tspan><tspan class="cls-6" x="153.58" y="84">t</tspan><tspan x="163.46" y="84">he </tspan><tspan x="0" y="126">Mount Eve</tspan><tspan class="cls-8" x="136.47" y="126">r</tspan><tspan x="145.82" y="126">est</tspan></text>
  <text class="cls-5" transform="translate(430.14 362.12)"><tspan class="cls-9" x="0" y="0">PRI</tspan><tspan class="cls-10" x="31.16" y="0">Y</tspan><tspan class="cls-9" x="41.96" y="0">ANKA KARNAM</tspan></text>
</svg>